<?xml version="1.0" encoding="utf-8"?>
<!-- Generator: Adobe Illustrator 25.2.3, SVG Export Plug-In . SVG Version: 6.00 Build 0)  -->
<svg version="1.1" id="圖層_1" xmlns="http://www.w3.org/2000/svg" xmlns:xlink="http://www.w3.org/1999/xlink" x="0px" y="0px"
	 viewBox="0 0 230 50" style="enable-background:new 0 0 230 50;" xml:space="preserve">
<style type="text/css">
	.st0{fill:#EC008C;}
	.st1{fill:#3E3A39;}
</style>
<g>
	<path class="st0" d="M0,7.8v35.5L50,50V0L0,7.8z M31.8,31.4l-24,3.7V11l24,3.8V31.4z"/>
	<path class="st1" d="M63.8,41.2h4v8.7h1.6v-8.7h4v-1h-9.7V41.2z M82.6,40.2l-5.1,9.6h1.7l1.4-2.7h5.4l1.3,2.7h1.8l-4.9-9.6H82.6z
		 M81,46.1l2-4c0.1-0.2,0.1-0.2,0.2-0.5c0.1,0.3,0.1,0.4,0.2,0.5l1.9,4H81z M95.7,49.8h1.6v-9.6h-1.6V49.8z M111,40.5
		c-0.7-0.2-1.4-0.3-2.1-0.3h-3.6v9.6h1.6v-4.1h0.7c1.3,0.1,2.5-0.1,3.7-0.6c1-0.4,1.6-1.3,1.7-2.3C113,42.1,112.5,41,111,40.5
		L111,40.5z M110.2,44.4c-0.8,0.3-1.6,0.4-2.4,0.3H107v-3.6h1.7c1.3,0,2.6,0.4,2.6,1.7C111.2,43.5,110.8,44.1,110.2,44.4z
		 M121.5,45.3h4.7v-1h-4.7v-3.1h5.4v-1h-7.1v9.6h7.1l0.8-1h-6.2V45.3z M134.2,40.2v9.6h1.6v-9.6L134.2,40.2z"/>
	<path class="st1" d="M76.8,30c-4.5,0-7-2.6-7-6c0-3.2,2.4-5.9,6.6-5.9c1.6,0,3.2,0.5,4.6,1.3l0.4,0.2v-4.7h-0.2
		c-1.7-0.5-3.5-0.8-5.4-0.8c-7.8,0-11.9,4.8-11.9,10c0,5.4,4.3,9.6,11.6,9.6c1.4,0,2.8-0.1,4.2-0.5h0.1l0.1-0.1l2.8-4.4l-0.7,0.3
		C80.3,29.7,78.5,30,76.8,30z M229.8,32.9l-6.7-9.4l6.7-8.9h-6.4l-3.3,4.7l-3.3-4.7h-6.4l6.6,9l-7.1,9.7h6.2l3.9-5.4l3.8,5.4h6.4
		L229.8,32.9z M174.6,18.7h5.7v14.6h5.7V18.7h5.6v-4.1h-17V18.7z M199.9,29.2v-3.5h6.6v-4.1h-6.6v-3h7.7v-4.1h-13.4v18.7h12.5
		l0.1-0.1l3-4L199.9,29.2z M145.4,14.6h-9v18.7h5.7v-7.2h2.3c1.5,0,5-0.1,7-2.7c0.7-0.9,1-2,1-3.1C152.4,16.5,149,14.6,145.4,14.6z
		 M146,21.9c-0.6,0.4-1.3,0.6-1.9,0.5h-2v-4h2c1.5,0,2.6,0.6,2.7,2C146.7,21.1,146.5,21.6,146,21.9L146,21.9z M95.1,14.1
		c-6.9,0-11.1,4.4-11.1,9.8c0,5.6,4.2,9.8,11.2,9.8c7,0,11-4.8,11-9.9S102,14.2,95.1,14.1z M95.1,29.7c-3.2,0-5.1-2.5-5.1-5.7
		c0-3.3,2-5.8,5.1-5.8c3.1,0,5.1,2.4,5.1,5.9C100.1,26.7,98.6,29.7,95.1,29.7L95.1,29.7z M125.6,14.6l-5.1,9.8l-5-9.8h-5.6
		l-2.3,18.7h5.5l1.1-11.3l5.8,11.2h1l5.9-11.2l1,11.2h5.6l-2.4-18.7L125.6,14.6z M166.9,29.2L166.9,29.2L166.9,29.2
		c-1.3,0.8-2.9,1.2-4.4,1.1c-1.1,0.1-2.2-0.6-2.5-1.7c-0.1-0.7-0.2-1.5-0.1-2.2V14.7h-5.1v13.9c0,1.2,0.1,2.7,1.5,4
		c0.7,0.6,2.1,1.2,4.3,1.2c1.4,0,3.3-0.6,5.5-2.2l0.9-0.7v2.5h5V14.7h-5V29.2z"/>
</g>
</svg>
