<svg id="圖層_2" data-name="圖層 2" xmlns="http://www.w3.org/2000/svg" viewBox="0 0 47.54 47.51"><defs><style>.cls-1{fill:#fff;}.cls-2{opacity:0.8;}.cls-3{fill:#3e3a39;}</style></defs><path class="cls-1" d="M47.54,4.46v38.6a4.46,4.46,0,0,1-4.47,4.45H4.48A4.45,4.45,0,0,1,0,43.06V4.46A4.46,4.46,0,0,1,4.48,0H43.07A4.47,4.47,0,0,1,47.54,4.46Z"/><g class="cls-2"><polygon class="cls-3" points="23.77 23.3 11.97 15.01 35.57 15.01 23.77 23.3"/><path class="cls-3" d="M37.75,15.76V31a1.5,1.5,0,0,1-1.49,1.5h-25A1.49,1.49,0,0,1,9.79,31V15.75l14,9.83Z"/></g></svg>