<svg id="圖層_2" data-name="圖層 2" xmlns="http://www.w3.org/2000/svg" viewBox="0 0 47.54 47.51"><defs><style>.cls-1{fill:#fff;}.cls-2{fill:#3e3a39;opacity:0.8;}</style></defs><path class="cls-1" d="M47.54,4.46v38.6a4.46,4.46,0,0,1-4.47,4.45H4.48A4.45,4.45,0,0,1,0,43.06V4.46A4.46,4.46,0,0,1,4.48,0H43.07A4.47,4.47,0,0,1,47.54,4.46Z"/><path class="cls-2" d="M37.58,22.39,24.38,9.74a.89.89,0,0,0-1.23,0L9.94,22.4a1.52,1.52,0,0,0-.44,1.06A1.49,1.49,0,0,0,11,25h2.08V36.24A1.78,1.78,0,0,0,14.85,38h5a.89.89,0,0,0,.9-.89V29.4a.29.29,0,0,1,.29-.29h5.35a.29.29,0,0,1,.3.29v7.73a.89.89,0,0,0,.89.89h5.05a1.79,1.79,0,0,0,1.79-1.78V25h2.08A1.49,1.49,0,0,0,38,23.46,1.52,1.52,0,0,0,37.58,22.39Z"/></svg>