<svg id="圖層_2" data-name="圖層 2" xmlns="http://www.w3.org/2000/svg" viewBox="0 0 47.53 47.52"><defs><style>.cls-1{fill:#fff;}.cls-2{opacity:0.8;}.cls-3{fill:#3e3a39;}</style></defs><path class="cls-1" d="M47.53,4.46v38.6a4.46,4.46,0,0,1-4.45,4.46H4.48A4.47,4.47,0,0,1,0,43.06V4.46A4.47,4.47,0,0,1,4.48,0h38.6A4.46,4.46,0,0,1,47.53,4.46Z"/><g class="cls-2"><rect class="cls-3" x="11.5" y="19.68" width="5.72" height="16.33"/><path class="cls-3" d="M14.36,11.51a2.86,2.86,0,1,0,2.86,2.86A2.86,2.86,0,0,0,14.36,11.51Z"/><path class="cls-3" d="M36,24.69c-.38-3.08-1.92-5-6.09-5-2.95,0-4.12.46-4.8,1.75h0V19.68H20.48V36h4.76V27.46c0-2.14.41-3.75,3.05-3.75s2.81,2,2.81,3.89V36H36S36.09,25.41,36,24.69Z"/></g></svg>