<svg id="圖層_2" data-name="圖層 2" xmlns="http://www.w3.org/2000/svg" viewBox="0 0 47.54 47.51"><defs><style>.cls-1,.cls-3{fill:#fff;}.cls-2{fill:#3e3a39;opacity:0.8;}.cls-2,.cls-3{fill-rule:evenodd;}</style></defs><path class="cls-1" d="M47.54,4.46v38.6a4.46,4.46,0,0,1-4.47,4.45H4.48A4.45,4.45,0,0,1,0,43.06V4.46A4.46,4.46,0,0,1,4.48,0H43.07A4.47,4.47,0,0,1,47.54,4.46Z"/><path class="cls-2" d="M35.3,12.24H12.24a4.91,4.91,0,0,0-4.91,4.92V30.35a4.91,4.91,0,0,0,4.91,4.92H35.3a4.91,4.91,0,0,0,4.91-4.92V17.16A4.91,4.91,0,0,0,35.3,12.24ZM20.48,29.32V16.93l9.4,6.2Z"/><polygon class="cls-3" points="29.32 23.13 21.04 28.59 21.04 17.67 29.32 23.13"/></svg>